<svg width="22" height="24" viewBox="0 0 22 24" fill="none" xmlns="http://www.w3.org/2000/svg">
<rect width="22" height="24" fill="#E5E5E5"/>
<g id="landing page" clip-path="url(#clip0_169_217)">
<rect width="1440" height="3386" transform="translate(-483 -1201)" fill="white"/>
<rect id="Rectangle 3" x="-483" y="-371" width="1440" height="908" fill="white"/>
<g id="REC1">
<g id="Rectangle 4" filter="url(#filter0_d_169_217)">
<rect x="-48" y="-61" width="270" height="438" fill="white"/>
</g>
<rect id="Rectangle 5" x="-17" y="-16" width="56" height="56" rx="10" fill="url(#paint0_linear_169_217)"/>
</g>
<g id="bi:shield-lock">
<g id="Group">
<path id="Vector" d="M7.00699 2.385C5.57838 2.77872 4.15946 3.20685 2.75149 3.669C2.62293 3.71065 2.50864 3.78756 2.42166 3.89099C2.33467 3.99442 2.27848 4.1202 2.25949 4.254C1.42849 10.4895 3.34849 15.039 5.63899 18.036C6.60877 19.3176 7.7651 20.4466 9.06949 21.3855C9.58849 21.7515 10.0475 22.0155 10.409 22.185C10.589 22.2705 10.736 22.3275 10.8485 22.362C10.8977 22.3793 10.9484 22.3918 11 22.3995C11.051 22.3912 11.1011 22.3787 11.15 22.362C11.264 22.3275 11.411 22.2705 11.591 22.185C11.951 22.0155 12.4115 21.75 12.9305 21.3855C14.2349 20.4466 15.3912 19.3176 16.361 18.036C18.6515 15.0405 20.5715 10.4895 19.7405 4.254C19.7217 4.12014 19.6655 3.99427 19.5785 3.89082C19.4915 3.78736 19.3771 3.71049 19.2485 3.669C18.272 3.3495 16.6235 2.829 14.993 2.3865C13.328 1.935 11.7965 1.6005 11 1.6005C10.205 1.6005 8.67199 1.935 7.00699 2.3865V2.385ZM6.60799 0.84C8.23549 0.3975 9.96499 0 11 0C12.035 0 13.7645 0.3975 15.392 0.84C17.057 1.29 18.7355 1.8225 19.7225 2.145C20.1352 2.28128 20.501 2.5312 20.778 2.86605C21.055 3.20091 21.232 3.60711 21.2885 4.038C22.1825 10.7535 20.108 15.7305 17.591 19.023C16.5237 20.4315 15.251 21.6718 13.8155 22.7025C13.3191 23.0592 12.7932 23.3728 12.2435 23.64C11.8235 23.838 11.372 24 11 24C10.628 24 10.178 23.838 9.75649 23.64C9.20676 23.3728 8.68085 23.0592 8.18449 22.7025C6.74903 21.6717 5.47637 20.4314 4.40899 19.023C1.89199 15.7305 -0.182507 10.7535 0.711493 4.038C0.768024 3.60711 0.944957 3.20091 1.22197 2.86605C1.49898 2.5312 1.86483 2.28128 2.27749 2.145C3.71028 1.67521 5.1542 1.24009 6.60799 0.84Z" fill="white"/>
<path id="Vector_2" d="M13.25 9.75001C13.2502 10.2155 13.1061 10.6696 12.8375 11.0497C12.5688 11.4299 12.1889 11.7173 11.75 11.8725L12.3275 14.8575C12.3485 14.9661 12.3453 15.078 12.318 15.1851C12.2907 15.2923 12.24 15.3921 12.1696 15.4774C12.0992 15.5627 12.0109 15.6313 11.9108 15.6785C11.8108 15.7256 11.7016 15.75 11.591 15.75H10.409C10.2985 15.7498 10.1895 15.7252 10.0896 15.678C9.98979 15.6308 9.90161 15.5621 9.83139 15.4768C9.76117 15.3915 9.71065 15.2918 9.68345 15.1848C9.65624 15.0777 9.65301 14.966 9.674 14.8575L10.25 11.8725C9.86114 11.735 9.51755 11.4933 9.25678 11.1738C8.99601 10.8542 8.82809 10.4691 8.77138 10.0606C8.71466 9.65207 8.77132 9.23581 8.93518 8.85731C9.09904 8.47881 9.36378 8.15263 9.70048 7.91441C10.0372 7.6762 10.4329 7.53512 10.8443 7.50658C11.2558 7.47805 11.6672 7.56316 12.0335 7.75262C12.3999 7.94208 12.7071 8.22859 12.9217 8.58085C13.1362 8.93311 13.2498 9.33756 13.25 9.75001Z" fill="white"/>
</g>
</g>
</g>
<defs>
<filter id="filter0_d_169_217" x="-86" y="-90" width="348" height="516" filterUnits="userSpaceOnUse" color-interpolation-filters="sRGB">
<feFlood flood-opacity="0" result="BackgroundImageFix"/>
<feColorMatrix in="SourceAlpha" type="matrix" values="0 0 0 0 0 0 0 0 0 0 0 0 0 0 0 0 0 0 127 0" result="hardAlpha"/>
<feMorphology radius="11" operator="erode" in="SourceAlpha" result="effect1_dropShadow_169_217"/>
<feOffset dx="1" dy="10"/>
<feGaussianBlur stdDeviation="25"/>
<feComposite in2="hardAlpha" operator="out"/>
<feColorMatrix type="matrix" values="0 0 0 0 0 0 0 0 0 0 0 0 0 0 0 0 0 0 0.3 0"/>
<feBlend mode="normal" in2="BackgroundImageFix" result="effect1_dropShadow_169_217"/>
<feBlend mode="normal" in="SourceGraphic" in2="effect1_dropShadow_169_217" result="shape"/>
</filter>
<linearGradient id="paint0_linear_169_217" x1="-29.1739" y1="22.9565" x2="47.5217" y2="26.6087" gradientUnits="userSpaceOnUse">
<stop stop-color="#7B16A9"/>
<stop offset="1" stop-color="#B721B7"/>
</linearGradient>
<clipPath id="clip0_169_217">
<rect width="1440" height="3386" fill="white" transform="translate(-483 -1201)"/>
</clipPath>
</defs>
</svg>
